<svg xmlns="http://www.w3.org/2000/svg" xmlns:xlink="http://www.w3.org/1999/xlink" xmlns:lucid="lucid" width="1348" height="560"><g transform="translate(-192 -200)" lucid:page-tab-id="0_0"><path d="M940 420h240v120H940z" stroke="#000" stroke-width="2" fill="#c1e4f7"/><use xlink:href="#a" transform="matrix(1,0,0,1,945,425) translate(15.217000000000027 43.84)"/><use xlink:href="#b" transform="matrix(1,0,0,1,945,425) translate(115 60.4)"/><use xlink:href="#c" transform="matrix(1,0,0,1,945,425) translate(41.352999999999994 76.05999999999999)"/><use xlink:href="#d" transform="matrix(1,0,0,1,945,425) translate(69.073 76.05999999999999)"/><use xlink:href="#e" transform="matrix(1,0,0,1,945,425) translate(166.327 76.05999999999999)"/><path d="M940 620h240v120H940z" stroke="#000" stroke-width="2" fill="#c1e4f7"/><use xlink:href="#f" transform="matrix(1,0,0,1,945,625) translate(80.206 43.84)"/><use xlink:href="#b" transform="matrix(1,0,0,1,945,625) translate(115 60.4)"/><use xlink:href="#c" transform="matrix(1,0,0,1,945,625) translate(41.182 76.05999999999999)"/><use xlink:href="#g" transform="matrix(1,0,0,1,945,625) translate(68.902 76.05999999999999)"/><use xlink:href="#e" transform="matrix(1,0,0,1,945,625) translate(166.498 76.05999999999999)"/><path d="M1520 544c0 8.84-35.82 16-80 16s-80-7.16-80-16V416c0-8.84 35.82-16 80-16s80 7.16 80 16z" stroke="#000" stroke-width="2" fill="#83bbe5"/><path d="M1520 416c0 8.84-35.82 16-80 16s-80-7.16-80-16" stroke="#000" stroke-width="2" fill="none"/><use xlink:href="#h" transform="matrix(1,0,0,1,1365,437) translate(36.885000000000005 47.84)"/><use xlink:href="#b" transform="matrix(1,0,0,1,1365,437) translate(75 64.4)"/><use xlink:href="#c" transform="matrix(1,0,0,1,1365,437) translate(4.853999999999999 80.06)"/><use xlink:href="#i" transform="matrix(1,0,0,1,1365,437) translate(32.574 80.06)"/><use xlink:href="#e" transform="matrix(1,0,0,1,1365,437) translate(122.826 80.06)"/><path d="M940 220h240v120H940z" stroke="#000" stroke-width="2" fill="#c1e4f7"/><use xlink:href="#j" transform="matrix(1,0,0,1,945,225) translate(9.259 43.84)"/><use xlink:href="#b" transform="matrix(1,0,0,1,945,225) translate(115 60.4)"/><use xlink:href="#c" transform="matrix(1,0,0,1,945,225) translate(33.631000000000014 76.05999999999999)"/><use xlink:href="#k" transform="matrix(1,0,0,1,945,225) translate(61.35100000000001 76.05999999999999)"/><use xlink:href="#l" transform="matrix(1,0,0,1,945,225) translate(104.515 76.05999999999999)"/><use xlink:href="#m" transform="matrix(1,0,0,1,945,225) translate(127.051 76.05999999999999)"/><use xlink:href="#e" transform="matrix(1,0,0,1,945,225) translate(174.04899999999998 76.05999999999999)"/><path d="M560 420h240v120H560z" stroke="#000" stroke-width="2" fill="#c1e4f7"/><use xlink:href="#n" transform="matrix(1,0,0,1,565,425) translate(40.46199999999999 43.84)"/><use xlink:href="#o" transform="matrix(1,0,0,1,565,425) translate(116.566 43.84)"/><use xlink:href="#p" transform="matrix(1,0,0,1,565,425) translate(115 60.4)"/><use xlink:href="#c" transform="matrix(1,0,0,1,565,425) translate(27.439000000000007 76.05999999999999)"/><use xlink:href="#q" transform="matrix(1,0,0,1,565,425) translate(55.159000000000006 76.05999999999999)"/><use xlink:href="#r" transform="matrix(1,0,0,1,565,425) translate(125.503 76.05999999999999)"/><use xlink:href="#e" transform="matrix(1,0,0,1,565,425) translate(180.24099999999999 76.05999999999999)"/><path d="M754.37 311.3l-7.1 3.5-6.37 3.5-5.75 3.5-5.22 3.46-4.75 3.45-4.34 3.44-3.97 3.44-3.66 3.43-3.37 3.45-3.1 3.46-2.9 3.5-2.67 3.52-2.47 3.56-2.3 3.6-2.13 3.7-1.96 3.75-1.8 3.85-1.67 3.95-1.5 4.07-1.38 4.2-1.22 4.38-1.06 4.55-.9 4.75-.75 5-.55 5.25-.35 5.56-.1 4.92-2-.04.1-4.98.36-5.64.56-5.34.75-5.07.9-4.84 1.1-4.62 1.24-4.45 1.4-4.3 1.53-4.14 1.7-4.04 1.84-3.92 2.02-3.83 2.16-3.74 2.34-3.7 2.53-3.62 2.72-3.58 2.93-3.55 3.18-3.52 3.43-3.5 3.73-3.5 4.04-3.48 4.4-3.5 4.82-3.48 5.28-3.5 5.82-3.54 6.44-3.54 7.1-3.52h4.92zm166.14-30.1h-.5l-32.1 1.32-26.13 2.17-21.66 2.7-18.22 3.1-15.52 3.28-2.73.7v-1.52h-2.14l4.4-1.13 15.6-3.3 18.32-3.1 21.75-2.73 26.2-2.18 32.17-1.32h.55z"/><path d="M681.02 418l-.02 1h-2l.02-1.05zM935.76 280.03l-14.2 4.78-.1-9.26z"/><path d="M939 280l-18.44 6.2-.12-12.02zm-16.47 3.43l10-3.36-10.06-3.16z"/><use xlink:href="#s" transform="matrix(1,0,0,1,749.956007501674,292.95875527780976) translate(0 13.5)"/><path d="M839.67 481H802v-2h37.67zm80.83 0H883v-2h37.5z"/><path d="M802.03 481H801v-2h1.03zM935.76 480l-14.26 4.64v-9.28z"/><path d="M939 480l-18.5 6v-12zm-16.5 3.26l10.03-3.26-10.03-3.26z"/><use xlink:href="#t" transform="matrix(1,0,0,1,839.6703333333334,471.72) translate(0 13.5)"/><path d="M1241.4 600.18l-.94 7.34-1.17 6.92-1.38 6.46-1.53 5.96-1.66 5.47-1.74 5-1.8 4.5-1.8 4.12-1.86 3.7-1.84 3.37-1.85 3.05-1.83 2.76-1.8 2.5-1.8 2.27-1.8 2.06-1.76 1.88-1.75 1.72-1.72 1.56-1.73 1.42-1.7 1.3-1.7 1.2-1.7 1.07-1.7 1-1.72.88-1.7.8-.84-1.82 1.65-.77 1.62-.86 1.63-.94 1.63-1.04 1.64-1.14 1.64-1.24 1.67-1.38 1.67-1.5 1.7-1.65 1.7-1.82 1.72-2 1.75-2.2 1.78-2.45 1.78-2.68 1.8-2.98 1.8-3.3 1.82-3.63 1.8-4.03 1.75-4.45 1.7-4.9 1.63-5.4 1.5-5.88 1.36-6.37 1.16-6.85.92-7.25.23-2.74h2zm-58.36-121.14l1.97.13 1.93.2 1.88.28 1.84.35 1.8.42 1.78.5 1.76.56 1.73.65 1.73.72 1.7.8 1.7.9 1.7.98 1.7 1.08 1.72 1.2 1.7 1.3 1.73 1.42 1.73 1.56 1.76 1.7 1.77 1.9 1.78 2.06 1.8 2.27 1.83 2.5 1.83 2.77 1.84 3.05 1.85 3.36 1.84 3.72 1.82 4.1 1.8 4.53 1.72 4.98 1.65 5.48 1.52 5.97 1.37 6.46 1.16 6.93.93 7.34.23 2.94h-2l-.23-2.72-.92-7.25-1.15-6.85-1.36-6.38-1.5-5.88-1.63-5.4-1.7-4.9-1.77-4.44-1.8-4.03-1.8-3.64-1.8-3.28-1.8-2.98-1.8-2.68-1.75-2.44-1.75-2.2-1.73-2-1.7-1.83-1.7-1.66-1.67-1.5-1.65-1.38-1.65-1.25-1.64-1.13-1.63-1.03-1.62-.94-1.63-.85-1.63-.77-1.65-.7-1.65-.6-1.67-.55-1.7-.47-1.72-.4-1.76-.34-1.8-.27-1.83-.2-1.9-.1-.96-.03.04-2z"/><path d="M1182.05 479.02l-.04 2-1-.02v-2zM1199.08 682.3l-14.9-1.63 13-7.45z"/><path d="M1200.34 683.44l-19.34-2.1 16.9-9.67zm-13-3.43l10.48 1.16-1.33-6.38z"/><g><use xlink:href="#u" transform="matrix(1,0,0,1,1195.3596472420074,564.1078733624602) translate(0.005000000000002558 13.5)"/><use xlink:href="#v" transform="matrix(1,0,0,1,1195.3596472420074,564.1078733624602) translate(58.487 13.5)"/><use xlink:href="#w" transform="matrix(1,0,0,1,1195.3596472420074,564.1078733624602) translate(19.733 30.06)"/></g><path d="M1352.5 295.47l8.96 2.9 7.82 2.9 6.9 2.9 6.14 2.9 5.5 2.87 4.95 2.86 4.5 2.85 4.1 2.84 3.74 2.83 3.45 2.85 3.17 2.86 2.94 2.87 2.72 2.9 2.52 2.93 2.35 2.97 2.2 3 2.03 3.07 1.9 3.14 1.76 3.22 1.64 3.3 1.5 3.4 1.4 3.5 1.27 3.66 1.15 3.8 1.02 3.98.9 4.17.57 3.47-1.98.34-.58-3.44-.87-4.1-1-3.88-1.12-3.72-1.24-3.57-1.35-3.44-1.48-3.34-1.6-3.22-1.73-3.13-1.85-3.05-2-3-2.14-2.94-2.3-2.9-2.47-2.86-2.67-2.83-2.88-2.8-3.1-2.8-3.38-2.8-3.68-2.8-4.04-2.8-4.42-2.8-4.9-2.8-5.4-2.84-6.07-2.85-6.82-2.86-7.75-2.87-8.87-2.88-4.74-1.33V294zm-109.12-15.43l4.5.28v2l-4.58-.28-61.3-1.02.02-2z"/><path d="M1182.05 279.02l-.04 2-1-.02v-2zM1439.76 395.77l-5.7-13.87 9.24-.7z"/><path d="M1440 399l-7.4-18 12-.9zm-4.5-16.2l4 9.75 2.5-10.25z"/><g><use xlink:href="#x" transform="matrix(1,0,0,1,1247.88159368399,268.7933799167479) translate(9.509000000000015 13.5)"/><use xlink:href="#y" transform="matrix(1,0,0,1,1247.88159368399,268.7933799167479) translate(0.005000000000002558 30.06)"/><use xlink:href="#z" transform="matrix(1,0,0,1,1247.88159368399,268.7933799167479) translate(81.131 30.06)"/></g><path d="M793 662.8l13.36 3.42 15.52 3.3 18.23 3.07 21.67 2.7 26.12 2.18 32.1 1.33h.5v2h-.56l-32.17-1.32-26.2-2.18-21.75-2.73-18.32-3.1-15.6-3.3-13.44-3.44-11.67-3.52-2.46-.84h6.55zM681.12 546.9l.35 5.57.55 5.26.74 5 .9 4.74 1.07 4.55 1.22 4.37 1.37 4.2 1.5 4.07 1.67 3.95 1.8 3.85 1.97 3.76 2.12 3.68 2.3 3.62 2.46 3.56 2.68 3.52 2.88 3.5 3.1 3.45 3.4 3.44 3.65 3.42 3.26 2.82h-3.07l-1.53-1.33-3.72-3.48-3.42-3.5-3.18-3.53-2.93-3.56-2.72-3.58-2.53-3.63-2.34-3.7-2.16-3.74-2-3.84-1.85-3.92-1.7-4.03-1.54-4.14-1.4-4.3-1.24-4.44-1.1-4.63-.9-4.85-.76-5.07-.56-5.34-.36-5.64-.1-4.98 2-.04z"/><path d="M681.02 542l-2 .05L679 541h2zM935.76 679.97l-14.3 4.5.1-9.28z"/><path d="M939 680l-18.56 5.82.12-12.02zm-16.53 3.1l10.06-3.17-10-3.36z"/><g><use xlink:href="#A" transform="matrix(1,0,0,1,679.8075690793703,627.236022334851) translate(0.005000000000002558 13.5)"/><use xlink:href="#B" transform="matrix(1,0,0,1,679.8075690793703,627.236022334851) translate(48.497 13.5)"/><use xlink:href="#C" transform="matrix(1,0,0,1,679.8075690793703,627.236022334851) translate(51.718999999999994 30.06)"/></g><path d="M243.2 532c-17.23 0-31.2-14.33-31.2-32 0-14.14 8.45-26.06 21.56-30.43C232.8 428 284.8 420 305.6 436c10.4-24 62.4-16 62.4 8 31.2-8 62.4 24 41.6 64 20.8 32 0 72-41.6 56-10.4 20.8-52 20.8-62.4 0-20.8 16-62.4 8-62.4-32z" stroke="#000" stroke-width="2" fill="#83bbe5"/><g><use xlink:href="#D" transform="matrix(1,0,0,1,217,425) translate(76.275 63.84)"/><use xlink:href="#b" transform="matrix(1,0,0,1,217,425) translate(99 80.4)"/><use xlink:href="#E" transform="matrix(1,0,0,1,217,425) translate(58.248000000000005 96.06)"/><use xlink:href="#F" transform="matrix(1,0,0,1,217,425) translate(85.968 96.06)"/><use xlink:href="#G" transform="matrix(1,0,0,1,217,425) translate(117.432 96.06)"/></g><path d="M525.07 475.26l8 1.52 7.06 1.03.52.06-.2 2-.57-.06-7.14-1.05-8.1-1.54-10.26-2.7h5.92v-.5zm-71.57-15.64v2l-3.06-.06-3.88.1-3.8.23-3.74.4-3.75.56-3.8.73-3.87.9-4 1.13-4.15 1.35-3.45 1.3-.7-1.88 3.5-1.3 4.22-1.4 4.08-1.13 3.95-.94 3.88-.75 3.84-.57 3.83-.4 3.87-.25 3.97-.1z"/><path d="M416.02 468.27l-.96.36-.1-.3-.62-1.57.98-.37zM555.77 479.8l-14.52 3.75.57-9.26z"/><path d="M559 480l-18.84 4.86.74-12zm-16.67 2.23l10.2-2.63-9.8-3.87z"/><g><use xlink:href="#H" transform="matrix(1,0,0,1,453.50458947567,457.94971138939104) translate(0 13.5)"/></g><path d="M1231.48 406.88l-1 5.87-1.16 5.47-1.3 5.05-1.4 4.64-1.46 4.23-1.52 3.84-1.55 3.48-1.57 3.15-1.57 2.85-1.56 2.58-1.55 2.34-1.55 2.12-1.52 1.92-1.52 1.75-1.5 1.6-1.48 1.45-1.47 1.33-1.45 1.2-1.46 1.1-1.45 1.02-1.45.92-1.44.82-.33.17-.93-1.78.3-.15 1.36-.8 1.38-.87 1.38-.95 1.38-1.06 1.4-1.16 1.4-1.27 1.44-1.4 1.44-1.53 1.46-1.7 1.47-1.86 1.5-2.05 1.5-2.27 1.53-2.5 1.53-2.8 1.52-3.06 1.52-3.4 1.48-3.76 1.45-4.15 1.37-4.56 1.27-4.98 1.15-5.4.98-5.77.74-5.9h2.02zm-48.75-108.9l1.68.1 1.64.17 1.6.23 1.55.3 1.53.36 1.5.42 1.5.48 1.47.55 1.46.6 1.45.7 1.46.75 1.44.83 1.45.92 1.45 1 1.45 1.1 1.46 1.22 1.48 1.33 1.5 1.45 1.5 1.6 1.5 1.75 1.53 1.93 1.55 2.12 1.55 2.34 1.57 2.58 1.56 2.86 1.57 3.15 1.54 3.48 1.52 3.84 1.47 4.23 1.4 4.63 1.3 5.06 1.16 5.47.98 5.87.78 6.17h-2.02l-.74-5.88-.98-5.8-1.14-5.38-1.28-4.98-1.37-4.55-1.44-4.16-1.5-3.76-1.5-3.4-1.54-3.08-1.53-2.78-1.52-2.5-1.5-2.28-1.5-2.05-1.46-1.88-1.46-1.7-1.44-1.52-1.42-1.4-1.4-1.27-1.4-1.15-1.4-1.06-1.38-.96-1.37-.87-1.37-.8-1.38-.72-1.37-.65-1.4-.58-1.38-.52-1.4-.45-1.44-.4-1.45-.34-1.48-.3-1.5-.2-1.56-.17-1.6-.1-.66-.02.04-2z"/><path d="M1182.05 297.95l-.04 2-1-.02v-2zM1199.1 469.6l-14.96-1.05 12.72-7.95z"/><path d="M1200.4 470.7l-19.4-1.37 16.5-10.3zm-13.12-2.93l10.52.74-1.58-6.32z"/><g><use xlink:href="#I" transform="matrix(1,0,0,1,1190.469000778335,367.57435462950815) translate(3.8120000000000047 13.5)"/><use xlink:href="#J" transform="matrix(1,0,0,1,1190.469000778335,367.57435462950815) translate(0.005000000000002558 30.06)"/><use xlink:href="#z" transform="matrix(1,0,0,1,1190.469000778335,367.57435462950815) translate(65.05700000000002 30.06)"/></g><defs><path d="M201-493c47 71 210 68 292 112 63 33 124 78 124 168C617-82 484-1 346-1 238-1 147-56 90-101c-22-18-25-51-8-73 18-22 51-25 73-7 44 36 120 77 191 77 89 0 201-58 159-141-40-79-211-71-298-116-58-30-116-76-116-160 0-123 125-200 253-199 96 0 167 48 218 80 56 35-2 124-57 86-50-35-100-64-161-64-79-1-172 48-143 125" id="K"/><path d="M492 187c-31 0-55-25-55-53V-42C277 71 60-60 60-250s218-321 379-208c4-23 26-42 53-42 30 0 54 24 54 54v580c0 28-24 53-54 53zm-55-437c0-75-61-142-134-142-71 0-135 67-135 142 0 78 63 143 135 143 75 0 134-65 134-143" id="L"/><path d="M100-645c0-30 25-55 55-55 31 0 56 25 56 55v590c0 30-25 55-56 55-30 0-55-25-55-55v-590" id="M"/><path d="M510-35l-49-130H218L169-35C157-8 129 8 98-3 69-13 55-46 65-75l221-589c18-47 89-47 106 0L613-75c11 34-9 74-52 75-22 0-43-13-51-35zM258-275h162l-81-215" id="N"/><path d="M58-249c0-139 116-250 254-251 60 0 116 22 159 55 23 18 28 53 11 74-19 25-53 29-75 10-91-76-243-4-243 112S315-62 407-138c21-18 56-14 75 11 17 21 13 55-11 74-42 32-99 53-159 53C174 0 58-112 58-249" id="O"/><path d="M148 0c-29 0-55-22-55-55v-590c0-31 25-55 55-55 31 0 56 24 56 55v174c146-85 325 31 325 190v226c0 31-24 55-55 55s-55-24-55-55v-226c0-59-48-108-108-108-59 0-107 49-107 108v226c0 31-25 55-56 55" id="P"/><path d="M543-268c2 34-20 53-53 54H172c12 96 151 149 234 86 53-40 121 14 75 62S373 0 302 0C165-1 58-114 58-250s107-250 244-250c130 0 233 97 241 232zM302-405c-85 0-127 65-135 106h283c-10-40-61-106-148-106" id="Q"/><path d="M615-393c-58 0-103 46-104 103v237c0 29-24 53-53 53-28 0-54-24-54-53v-240c0-55-47-100-103-100-55 0-101 46-101 103-1 82 5 167-1 247-2 27-32 48-63 42-24-5-43-26-43-52v-393c0-57 82-74 101-24 86-54 207-31 264 39 37-43 94-69 157-69 115 0 208 94 208 210v237c0 29-24 53-53 53s-54-24-54-53v-237c0-57-46-103-101-103" id="R"/><path d="M416-500c29 0 54 23 54 53v378c0 170-179 293-342 214-27-13-39-44-26-71 12-25 47-35 71-22 77 38 163-8 183-77C214 50 52-63 52-211v-236c0-30 25-53 52-53 31 0 53 23 53 53v236c0 58 47 102 104 102s103-44 103-102v-236c0-30 22-53 52-53" id="S"/><path d="M460-321c38 29 68 82 68 145 0 30 2 49 4 59 48 11 51 90 0 104-4 1-13 4-23 3-77-10-92-73-92-166 0-59-61-85-98-96H201v217c0 30-25 55-56 55S90-25 90-55v-590c0-31 24-55 56-55h178c119 0 214 96 214 215 0 66-30 124-78 164zm-136-62c57 0 103-46 103-102 0-58-46-104-103-104H201v206h123" id="T"/><path d="M146 188c-29 0-53-26-53-54v-581c0-65 101-68 108-12 161-111 378 19 378 210C579-60 362 69 203-42v176c0 28-25 54-57 54zm191-579c-75 0-134 66-134 142 0 78 60 142 134 142 71 0 133-64 133-142 0-76-61-142-133-142" id="U"/><path d="M311 3C176 3 70-110 70-249c0-134 107-252 241-251 132 0 237 120 237 251C548-112 444 3 311 3zm0-394c-79 0-132 61-132 142 0 82 51 143 132 143 77 0 131-64 131-143 0-78-56-142-131-142" id="V"/><path d="M252-500c69 0 118 33 150 55 24 16 32 49 16 74-15 24-50 32-74 14-45-34-105-52-152-19-21 15-21 29-3 41 37 24 123 31 168 54 43 21 90 63 90 125C447-59 353 0 254 0 176 0 116-37 76-69c-22-18-25-52-7-74 18-24 54-28 75-8 41 37 126 64 178 25 24-18 24-36 2-52-34-24-125-32-168-54-41-21-87-58-86-121 1-91 89-148 182-147" id="W"/><path d="M148-499c31 0 54 23 54 55v390c0 30-23 54-54 54-30 0-54-24-54-54v-390c0-32 24-55 54-55zm0-201c38 0 54 31 54 75 0 30-23 55-54 55-37 0-54-32-54-76 0-30 24-54 54-54" id="X"/><path d="M237-500c46-6 81 15 81 55 0 39-35 61-81 55v279c31 0 55 25 55 56S268 0 237 0c-61 0-111-50-111-111v-279c-49 7-84-14-84-55 0-42 35-61 84-55 8-77-29-200 56-200 84 0 47 123 55 200" id="Y"/><path d="M201-440c32-36 85-59 147-59 30 0 53 23 53 52 0 28-23 53-53 53-84 0-129 100-147 151v190c0 29-25 53-55 53-29 0-53-24-53-53v-394c0-29 24-52 53-52 32 1 58 25 55 59" id="Z"/><g id="a"><use transform="matrix(0.018,0,0,0.018,0,0)" xlink:href="#K"/><use transform="matrix(0.018,0,0,0.018,12.005999999999998,0)" xlink:href="#L"/><use transform="matrix(0.018,0,0,0.018,23.885999999999996,0)" xlink:href="#M"/><use transform="matrix(0.018,0,0,0.018,28.367999999999995,0)" xlink:href="#N"/><use transform="matrix(0.018,0,0,0.018,39.995999999999995,0)" xlink:href="#M"/><use transform="matrix(0.018,0,0,0.018,44.477999999999994,0)" xlink:href="#O"/><use transform="matrix(0.018,0,0,0.018,54.75599999999999,0)" xlink:href="#P"/><use transform="matrix(0.018,0,0,0.018,65.78999999999999,0)" xlink:href="#Q"/><use transform="matrix(0.018,0,0,0.018,76.752,0)" xlink:href="#R"/><use transform="matrix(0.018,0,0,0.018,93.6,0)" xlink:href="#S"/><use transform="matrix(0.018,0,0,0.018,104.184,0)" xlink:href="#T"/><use transform="matrix(0.018,0,0,0.018,115.25399999999999,0)" xlink:href="#Q"/><use transform="matrix(0.018,0,0,0.018,126.216,0)" xlink:href="#U"/><use transform="matrix(0.018,0,0,0.018,138.096,0)" xlink:href="#V"/><use transform="matrix(0.018,0,0,0.018,149.34599999999998,0)" xlink:href="#W"/><use transform="matrix(0.018,0,0,0.018,158.202,0)" xlink:href="#X"/><use transform="matrix(0.018,0,0,0.018,163.26,0)" xlink:href="#Y"/><use transform="matrix(0.018,0,0,0.018,170.18999999999994,0)" xlink:href="#V"/><use transform="matrix(0.018,0,0,0.018,181.07999999999996,0)" xlink:href="#Z"/><use transform="matrix(0.018,0,0,0.018,188.98199999999994,0)" xlink:href="#S"/></g><path d="M66-331c-9-11-5-32 4-40l376-321c27-25 66 21 37 44L129-345 373-46c24 28-20 66-44 37" id="aa"/><g id="c"><use transform="matrix(0.018,0,0,0.018,0,0)" xlink:href="#aa"/><use transform="matrix(0.018,0,0,0.018,11.159999999999998,0)" xlink:href="#aa"/></g><path d="M533-12c-79 11-62-103-53-174 8-66-70-104-115-114H190L141-20c-4 30-55 22-49-9l115-651c2-12 13-20 26-20h196c97-1 172 73 172 169 0 107-68 176-150 214 37 22 78 65 77 131 0 43-17 94-4 126 27-4 39 44 9 48zM367-349c91-2 185-77 185-182 0-70-49-120-123-120H252l-53 302h168" id="ab"/><path d="M259-1C143 0 55-90 58-205c4-165 134-285 280-285 125 0 218 104 198 236-2 10-12 19-23 19H108C93-128 159-49 259-49c67 0 134-36 177-90 18-24 57 5 37 29C421-46 343-1 259-1zm79-441c-92-1-183 68-217 158 123-1 251 3 370-2-1-90-62-155-153-156" id="ac"/><path d="M367-5c-77 1-142-41-174-96l-50 285c-3 13-13 22-28 20-13-2-22-15-20-29 38-214 77-429 114-643 5-31 54-23 48 9l-11 62c52-55 122-90 195-91 117 0 201 89 201 204C642-122 507-8 367-5zm74-434c-110 0-226 100-226 234 0 89 62 152 152 152 109 0 226-98 226-231 0-91-61-155-152-155" id="ad"/><path d="M345-490c128 0 217 110 192 250l-23-5 23 5C513-107 395 0 266 0 153 1 67-90 70-204c4-164 134-286 275-286zm0 48c-111 0-227 102-227 238 0 92 60 157 149 157 111 0 227-104 227-239 0-91-61-156-149-156" id="ae"/><path d="M186-311c78 52 266 36 243 172C415-58 319 0 224 0 150 0 93-38 60-69c-22-20 17-57 37-37 27 28 79 58 135 58 69 1 144-39 149-91 10-103-168-82-228-132-65-54-29-149 33-184 36-20 78-35 123-35 64 0 106 31 139 55 25 19-13 56-33 40-31-26-67-48-115-48-61-1-126 36-135 83-4 20 2 36 21 49" id="af"/><path d="M120 0c-16 0-26-14-23-27l77-443c2-13 15-22 28-20s22 15 19 29L143-19c-2 11-12 19-23 19zm107-634c34 5 23 75-12 70-33-7-20-76 12-70" id="ag"/><path d="M142-1C96-1 59-41 67-91l64-350c-34-3-89 12-89-24 0-40 62-20 98-25l31-191c4-31 54-23 49 8l-31 183h126c30-2 31 49 0 49H181c-22 122-46 243-66 365-6 36 54 16 52 50 0 14-11 25-25 25" id="ah"/><path d="M203-361c49-61 120-125 219-127 31-1 31 50 0 48-110-9-212 138-241 202L143-21c-3 31-53 22-47-8 28-146 52-293 78-439 2-13 14-22 27-20s21 15 19 28" id="ai"/><path d="M233-1C126 0 46-86 66-203l46-266c4-30 53-21 47 9-18 98-49 190-49 293 0 69 49 119 123 119 83 1 166-70 181-155l47-266c5-30 52-21 47 9L433-34C404 122 232 245 68 170c-28-13-7-57 22-43 138 64 286-52 300-192-42 39-98 64-157 64" id="aj"/><g id="d"><use transform="matrix(0.018,0,0,0.018,0,0)" xlink:href="#ab"/><use transform="matrix(0.018,0,0,0.018,11.070000000000002,0)" xlink:href="#ac"/><use transform="matrix(0.018,0,0,0.018,20.682000000000002,0)" xlink:href="#ad"/><use transform="matrix(0.018,0,0,0.018,32.562,0)" xlink:href="#ae"/><use transform="matrix(0.018,0,0,0.018,43.812,0)" xlink:href="#af"/><use transform="matrix(0.018,0,0,0.018,52.056,0)" xlink:href="#ag"/><use transform="matrix(0.018,0,0,0.018,57.833999999999996,0)" xlink:href="#ah"/><use transform="matrix(0.018,0,0,0.018,63.233999999999995,0)" xlink:href="#ae"/><use transform="matrix(0.018,0,0,0.018,73.368,0)" xlink:href="#ai"/><use transform="matrix(0.018,0,0,0.018,81.27,0)" xlink:href="#aj"/></g><path d="M519-369c9 10 6 32-4 40L139-8c-26 26-65-19-37-43l354-303-244-300c-24-27 20-65 44-36" id="ak"/><g id="e"><use transform="matrix(0.018,0,0,0.018,0,0)" xlink:href="#ak"/><use transform="matrix(0.018,0,0,0.018,11.159999999999998,0)" xlink:href="#ak"/></g><path d="M553-485c0 117-96 213-215 213H215v217c0 30-25 55-56 55-30 0-55-25-55-55v-590c0-31 25-55 56-55h178c119 0 215 96 215 215zM215-589v206h123c58 0 104-46 104-102 0-58-46-104-104-104H215" id="al"/><path d="M546-54c0 29-24 54-54 54-27 0-48-19-53-43-38 26-86 43-136 43C168 0 60-114 60-249c0-189 216-323 377-209v-188c0-29 24-54 55-54 30 0 54 25 54 54v592zM437-249c0-77-59-142-134-142-74 0-134 65-134 142 0 75 61 140 134 140 74 0 134-65 134-140" id="am"/><path d="M502-208C502-94 406 0 291 0 177 0 83-94 83-208v-239c0-28 24-53 53-53 30 0 53 25 53 53v239c0 57 45 102 102 102 58 0 105-45 105-102v-239c0-28 22-53 52-53 28 0 54 25 54 53v239" id="an"/><g id="f"><use transform="matrix(0.018,0,0,0.018,0,0)" xlink:href="#al"/><use transform="matrix(0.018,0,0,0.018,10.494,0)" xlink:href="#Z"/><use transform="matrix(0.018,0,0,0.018,17.945999999999998,0)" xlink:href="#V"/><use transform="matrix(0.018,0,0,0.018,29.195999999999998,0)" xlink:href="#am"/><use transform="matrix(0.018,0,0,0.018,41.07599999999999,0)" xlink:href="#an"/><use transform="matrix(0.018,0,0,0.018,52.11,0)" xlink:href="#O"/><use transform="matrix(0.018,0,0,0.018,62.387999999999984,0)" xlink:href="#Y"/></g><path d="M518-182H197L104-13C92 16 46-8 61-36l360-651c9-21 43-15 47 7L598-29c8 30-42 40-48 9zm-10-49l-75-377-209 377h284" id="ao"/><path d="M333-488c75-2 143 41 171 100 12-34 0-99 41-100 14 3 23 15 20 29-25 142-49 285-75 427-29 157-203 281-366 203-28-13-6-54 22-41 147 66 297-60 305-219C400-35 330 1 257 1 143 1 60-86 60-201c0-163 134-284 273-287zm0 49c-109 0-225 103-225 238 0 92 61 154 150 154 109-1 225-100 225-235 0-93-61-157-150-157" id="ap"/><path d="M235 0C122 1 37-89 40-203c4-163 132-281 273-285 76-2 140 42 170 99l14-79c3-32 52-22 47 8L466-20c-3 13-13 21-28 20-37-11-9-60-8-92C380-36 310-1 235 0zm78-440C201-440 87-337 87-203c0 90 61 155 148 155 111 0 226-100 226-237 0-90-59-155-148-155" id="aq"/><g id="g"><use transform="matrix(0.018,0,0,0.018,0,0)" xlink:href="#ao"/><use transform="matrix(0.018,0,0,0.018,12.186,0)" xlink:href="#ap"/><use transform="matrix(0.018,0,0,0.018,24.065999999999995,0)" xlink:href="#ap"/><use transform="matrix(0.018,0,0,0.018,34.59599999999999,0)" xlink:href="#ai"/><use transform="matrix(0.018,0,0,0.018,42.49799999999999,0)" xlink:href="#ac"/><use transform="matrix(0.018,0,0,0.018,53.459999999999994,0)" xlink:href="#ap"/><use transform="matrix(0.018,0,0,0.018,65.33999999999999,0)" xlink:href="#aq"/><use transform="matrix(0.018,0,0,0.018,76.48199999999997,0)" xlink:href="#ah"/><use transform="matrix(0.018,0,0,0.018,81.234,0)" xlink:href="#ac"/></g><path d="M60-248c0-136 105-252 240-252 52 0 98 16 134 42 5-24 27-42 53-42 30 0 53 24 53 53v386c0 167-180 293-345 215-61-29-15-129 48-97 81 42 174-14 188-93C271 74 60-60 60-248zm240 144c77 0 133-61 133-144-1-80-57-145-133-145-73 1-132 68-132 145 0 80 57 144 132 144" id="ar"/><g id="h"><use transform="matrix(0.018,0,0,0.018,0,0)" xlink:href="#al"/><use transform="matrix(0.018,0,0,0.018,10.223999999999998,0)" xlink:href="#V"/><use transform="matrix(0.018,0,0,0.018,21.473999999999997,0)" xlink:href="#W"/><use transform="matrix(0.018,0,0,0.018,30.6,0)" xlink:href="#Y"/><use transform="matrix(0.018,0,0,0.018,37.529999999999994,0)" xlink:href="#ar"/><use transform="matrix(0.018,0,0,0.018,49.41,0)" xlink:href="#Z"/><use transform="matrix(0.018,0,0,0.018,56.412,0)" xlink:href="#Q"/><use transform="matrix(0.018,0,0,0.018,67.374,0)" xlink:href="#W"/></g><path d="M673-406C668-168 470 1 261 1H126c-13-3-22-15-20-29l115-651c2-12 13-20 25-20h130c170-2 301 125 297 293zM261-48c180-5 363-151 363-358 0-140-100-243-248-244H266L160-48h101" id="as"/><path d="M333 2c-78 1-145-41-175-99l-14 79c-3 14-14 22-29 20-13-2-22-15-19-29l114-651c5-31 55-23 49 9l-49 273c52-56 124-91 200-92 131 0 223 109 198 249l-24-4 24 4C584-105 464 1 333 2zm77-441c-114 0-231 103-231 236 0 91 62 156 154 156 112 0 230-100 230-236 0-91-61-156-153-156" id="at"/><g id="i"><use transform="matrix(0.018,0,0,0.018,0,0)" xlink:href="#as"/><use transform="matrix(0.018,0,0,0.018,13.517999999999999,0)" xlink:href="#aq"/><use transform="matrix(0.018,0,0,0.018,24.659999999999997,0)" xlink:href="#ah"/><use transform="matrix(0.018,0,0,0.018,31.319999999999997,0)" xlink:href="#aq"/><use transform="matrix(0.018,0,0,0.018,41.562,0)" xlink:href="#at"/><use transform="matrix(0.018,0,0,0.018,54.342,0)" xlink:href="#aq"/><use transform="matrix(0.018,0,0,0.018,65.03399999999999,0)" xlink:href="#af"/><use transform="matrix(0.018,0,0,0.018,73.89,0)" xlink:href="#ac"/></g><path d="M683-289C683-130 554 0 394 0 233 0 105-130 105-289v-356c0-31 24-55 55-55 30 0 56 24 56 55v356c0 98 80 178 178 178 99 0 178-80 178-178v-356c0-31 25-55 56-55s55 24 55 55v356" id="au"/><path d="M201-53c-3 30-25 53-55 53S93-24 93-53v-394c0-56 83-72 102-22 136-88 315 25 315 177v239c0 29-23 53-52 53-28 0-53-24-53-53v-239c0-56-47-101-104-101-56 0-100 45-100 101v239" id="av"/><path d="M73-360c0-196 150-360 344-360 190 0 340 168 340 360C757-167 607 0 417 0 223 0 73-163 73-360zm344 246c125 0 226-114 226-246 0-131-100-246-226-246-131 0-230 113-230 246s100 246 230 246" id="aw"/><path d="M298-590c-47 0-35 6-41 71 49-6 85 13 85 55 0 41-36 62-85 55v353c0 30-24 55-55 55s-55-25-55-55v-353c-47 6-82-16-82-55 0-40 35-61 82-55-6-111 44-186 151-182 30 0 55 25 55 55 0 31-25 56-55 56" id="ax"/><path d="M407-18c-21 32-85 16-90-16L71-617c-30-63 73-107 101-42l196 463 129-307c18-45 85-45 104 0l129 307 195-463c12-28 44-41 73-29 27 11 40 44 28 71-84 197-166 397-251 593-13 30-76 32-89 0-4-1-4-6-6-10L549-344c-46 106-90 214-136 320" id="ay"/><path d="M148 0c-31 0-55-25-55-55v-590c0-30 24-55 55-55s56 25 56 55v346l205-205c21-21 57-21 78 0 22 22 22 57 0 78L337-276 491-91c46 53-38 128-85 71L259-198l-55 55c1 66 11 143-56 143" id="az"/><g id="j"><use transform="matrix(0.018,0,0,0.018,0,0)" xlink:href="#K"/><use transform="matrix(0.018,0,0,0.018,12.005999999999998,0)" xlink:href="#L"/><use transform="matrix(0.018,0,0,0.018,23.885999999999996,0)" xlink:href="#M"/><use transform="matrix(0.018,0,0,0.018,28.367999999999995,0)" xlink:href="#N"/><use transform="matrix(0.018,0,0,0.018,39.995999999999995,0)" xlink:href="#M"/><use transform="matrix(0.018,0,0,0.018,44.477999999999994,0)" xlink:href="#O"/><use transform="matrix(0.018,0,0,0.018,54.75599999999999,0)" xlink:href="#P"/><use transform="matrix(0.018,0,0,0.018,65.78999999999999,0)" xlink:href="#Q"/><use transform="matrix(0.018,0,0,0.018,76.752,0)" xlink:href="#R"/><use transform="matrix(0.018,0,0,0.018,93.6,0)" xlink:href="#S"/><use transform="matrix(0.018,0,0,0.018,104.184,0)" xlink:href="#au"/><use transform="matrix(0.018,0,0,0.018,118.83599999999998,0)" xlink:href="#av"/><use transform="matrix(0.018,0,0,0.018,129.87,0)" xlink:href="#X"/><use transform="matrix(0.018,0,0,0.018,134.928,0)" xlink:href="#Y"/><use transform="matrix(0.018,0,0,0.018,142.128,0)" xlink:href="#aw"/><use transform="matrix(0.018,0,0,0.018,157.428,0)" xlink:href="#ax"/><use transform="matrix(0.018,0,0,0.018,163.944,0)" xlink:href="#ay"/><use transform="matrix(0.018,0,0,0.018,182.61,0)" xlink:href="#V"/><use transform="matrix(0.018,0,0,0.018,193.49999999999997,0)" xlink:href="#Z"/><use transform="matrix(0.018,0,0,0.018,201.402,0)" xlink:href="#az"/></g><path d="M347-1C194-1 81-124 110-288l69-393c2-13 15-22 28-20 14 3 22 15 20 29-24 145-73 282-73 433 0 109 78 188 193 189 129 1 256-108 279-238l70-393c4-31 54-23 48 9l-70 392C646-125 502-1 347-1" id="aA"/><path d="M370-488c108 0 189 87 168 204L491-19c-2 12-13 21-27 19-13-1-22-15-19-28 15-98 48-189 48-291 0-70-48-120-123-121-82-1-165 70-182 155-18 93-26 200-56 282-18 10-41-5-37-25 27-146 54-292 77-440 5-30 53-22 48 8l-7 39c43-41 99-67 157-67" id="aB"/><g id="k"><use transform="matrix(0.018,0,0,0.018,0,0)" xlink:href="#aA"/><use transform="matrix(0.018,0,0,0.018,14.652,0)" xlink:href="#aB"/><use transform="matrix(0.018,0,0,0.018,24.785999999999998,0)" xlink:href="#ag"/><use transform="matrix(0.018,0,0,0.018,30.563999999999997,0)" xlink:href="#ah"/></g><path d="M327-699c13 0 22 11 20 25-2 13-15 24-29 24-78 0-79 24-99 100l-9 52c33 4 94-14 89 24s-59 21-97 25L126-23c-1 28-54 33-48 0l75-426c-33-4-92 14-86-25 5-35 56-21 94-24 10-109 50-205 166-201" id="aC"/><g id="l"><use transform="matrix(0.018,0,0,0.018,0,0)" xlink:href="#ae"/><use transform="matrix(0.018,0,0,0.018,10.62,0)" xlink:href="#aC"/></g><path d="M212-14c-9 17-39 13-44-7L61-457c-9-30 39-41 46-11l94 381 161-270c9-19 39-14 44 6l66 264 231-388c15-27 56-1 40 25C651-303 569-148 473-5c-15 7-31-3-34-16l-65-266" id="aD"/><path d="M471-35c20 26-24 52-41 26L285-233c-41 34-82 68-122 103L144-18c-4 31-55 23-49-8l115-651c4-32 54-24 48 8l-81 463 338-287c22-22 56 18 32 37L322-265" id="aE"/><g id="m"><use transform="matrix(0.018,0,0,0.018,0,0)" xlink:href="#aD"/><use transform="matrix(0.018,0,0,0.018,13.482,0)" xlink:href="#ae"/><use transform="matrix(0.018,0,0,0.018,23.616,0)" xlink:href="#ai"/><use transform="matrix(0.018,0,0,0.018,31.518,0)" xlink:href="#aE"/></g><path d="M40-249c0-137 103-250 238-251 50 0 95 17 133 44 6-25 26-44 52-44 29 0 53 24 53 54v393c0 29-24 53-53 53-26 0-46-19-52-43-38 27-83 43-133 43C142 1 40-113 40-249zm238 142c76 0 132-64 132-142 0-80-57-144-132-144-76 0-131 64-131 144 0 79 54 142 131 142" id="aF"/><g id="n"><use transform="matrix(0.018,0,0,0.018,0,0)" xlink:href="#N"/><use transform="matrix(0.018,0,0,0.018,11.627999999999998,0)" xlink:href="#M"/><use transform="matrix(0.018,0,0,0.018,16.11,0)" xlink:href="#M"/><use transform="matrix(0.018,0,0,0.018,20.592,0)" xlink:href="#V"/><use transform="matrix(0.018,0,0,0.018,31.842,0)" xlink:href="#O"/><use transform="matrix(0.018,0,0,0.018,42.12,0)" xlink:href="#aF"/><use transform="matrix(0.018,0,0,0.018,53.26200000000001,0)" xlink:href="#Y"/><use transform="matrix(0.018,0,0,0.018,59.742000000000004,0)" xlink:href="#Q"/></g><g id="o"><use transform="matrix(0.018,0,0,0.018,0,0)" xlink:href="#ax"/><use transform="matrix(0.018,0,0,0.018,6.515999999999999,0)" xlink:href="#an"/><use transform="matrix(0.018,0,0,0.018,17.118,0)" xlink:href="#av"/><use transform="matrix(0.018,0,0,0.018,28.151999999999997,0)" xlink:href="#O"/><use transform="matrix(0.018,0,0,0.018,38.429999999999986,0)" xlink:href="#Y"/><use transform="matrix(0.018,0,0,0.018,45.629999999999995,0)" xlink:href="#X"/><use transform="matrix(0.018,0,0,0.018,50.687999999999995,0)" xlink:href="#V"/><use transform="matrix(0.018,0,0,0.018,61.937999999999995,0)" xlink:href="#av"/></g><path d="M240-437c68 55 238 58 304 115 38 33 63 74 53 129C575-80 443 0 308 0 204 0 122-55 73-100c-19-17 15-51 33-33 42 43 121 89 210 89 108 0 221-63 237-149 7-39-6-67-39-93-102-78-383-46-353-235 17-106 143-180 268-179 91 0 152 44 200 80 22 17-12 51-31 36-46-37-100-73-176-73-100-1-203 58-218 136-7 35 7 60 36 84" id="aG"/><path d="M206-14c-8 18-39 12-43-6L56-457c-9-28 37-42 45-11l94 381 231-388c14-27 57-2 41 25" id="aH"/><path d="M273-1C151 0 55-90 58-208c4-165 143-282 292-282 59 0 112 20 150 54 23 19-9 55-32 36-137-113-362 17-362 192 0 91 67 158 167 159 47 0 95-16 136-44 24-17 53 23 27 40C388-21 331-1 273-1" id="aI"/><g id="q"><use transform="matrix(0.018,0,0,0.018,0,0)" xlink:href="#aG"/><use transform="matrix(0.018,0,0,0.018,12.005999999999998,0)" xlink:href="#ac"/><use transform="matrix(0.018,0,0,0.018,21.113999999999997,0)" xlink:href="#ai"/><use transform="matrix(0.018,0,0,0.018,30.131999999999998,0)" xlink:href="#aH"/><use transform="matrix(0.018,0,0,0.018,38.916,0)" xlink:href="#ag"/><use transform="matrix(0.018,0,0,0.018,43.974,0)" xlink:href="#aI"/><use transform="matrix(0.018,0,0,0.018,53.982,0)" xlink:href="#ac"/></g><path d="M515-23c0 14-11 24-25 24H126c-14 0-22-15-20-28l115-651c4-32 54-22 48 8L159-47h331c14 0 25 11 25 24" id="aJ"/><g id="r"><use transform="matrix(0.018,0,0,0.018,0,0)" xlink:href="#aJ"/><use transform="matrix(0.018,0,0,0.018,11.142,0)" xlink:href="#aq"/><use transform="matrix(0.018,0,0,0.018,22.284,0)" xlink:href="#aj"/><use transform="matrix(0.018,0,0,0.018,32.328,0)" xlink:href="#ac"/><use transform="matrix(0.018,0,0,0.018,41.43600000000001,0)" xlink:href="#ai"/></g><g id="s"><use transform="matrix(0.018,0,0,0.018,0,0)" xlink:href="#K"/><use transform="matrix(0.018,0,0,0.018,11.915999999999999,0)" xlink:href="#Y"/><use transform="matrix(0.018,0,0,0.018,18.575999999999997,0)" xlink:href="#aF"/><use transform="matrix(0.018,0,0,0.018,29.718000000000004,0)" xlink:href="#Z"/><use transform="matrix(0.018,0,0,0.018,37.62,0)" xlink:href="#Y"/><use transform="matrix(0.018,0,0,0.018,44.81999999999999,0)" xlink:href="#W"/></g><g id="t"><use transform="matrix(0.018,0,0,0.018,0,0)" xlink:href="#au"/><use transform="matrix(0.018,0,0,0.018,14.652,0)" xlink:href="#W"/><use transform="matrix(0.018,0,0,0.018,23.508,0)" xlink:href="#Q"/><use transform="matrix(0.018,0,0,0.018,34.47,0)" xlink:href="#W"/></g><path d="M162 0c-33 1-58-24-58-55v-590c0-30 24-55 55-55s56 25 56 55v534h271c29 0 55 25 55 56 0 30-26 55-55 55H162" id="aK"/><g id="u"><use transform="matrix(0.018,0,0,0.018,0,0)" xlink:href="#aK"/><use transform="matrix(0.018,0,0,0.018,9.953999999999999,0)" xlink:href="#V"/><use transform="matrix(0.018,0,0,0.018,21.204000000000004,0)" xlink:href="#aF"/><use transform="matrix(0.018,0,0,0.018,32.346000000000004,0)" xlink:href="#am"/><use transform="matrix(0.018,0,0,0.018,44.226,0)" xlink:href="#W"/></g><g id="v"><use transform="matrix(0.018,0,0,0.018,0,0)" xlink:href="#aF"/><use transform="matrix(0.018,0,0,0.018,10.962,0)" xlink:href="#av"/><use transform="matrix(0.018,0,0,0.018,21.636,0)" xlink:href="#am"/></g><path d="M324-32c-7 36-78 43-93 7-57-130-108-265-166-395-27-60 69-104 96-39l115 272 116-272c21-66 122-22 96 39" id="aL"/><g id="w"><use transform="matrix(0.018,0,0,0.018,0,0)" xlink:href="#K"/><use transform="matrix(0.018,0,0,0.018,12.005999999999998,0)" xlink:href="#aF"/><use transform="matrix(0.018,0,0,0.018,22.787999999999997,0)" xlink:href="#aL"/><use transform="matrix(0.018,0,0,0.018,32.724,0)" xlink:href="#Q"/><use transform="matrix(0.018,0,0,0.018,43.686,0)" xlink:href="#W"/></g><path d="M187-360c0 139 116 246 253 246 62 0 116-20 161-55 23-18 61-14 80 11 19 24 14 61-10 80C608-29 528 0 440 0 240 0 73-161 73-360c0-198 167-359 367-360 88 0 168 28 231 78 24 19 29 55 10 80s-57 29-80 11c-44-36-99-55-161-55-137-1-253 109-253 246" id="aM"/><g id="x"><use transform="matrix(0.018,0,0,0.018,0,0)" xlink:href="#aM"/><use transform="matrix(0.018,0,0,0.018,13.697999999999999,0)" xlink:href="#V"/><use transform="matrix(0.018,0,0,0.018,24.948000000000004,0)" xlink:href="#R"/><use transform="matrix(0.018,0,0,0.018,42.066,0)" xlink:href="#R"/><use transform="matrix(0.018,0,0,0.018,59.184,0)" xlink:href="#X"/><use transform="matrix(0.018,0,0,0.018,64.24199999999999,0)" xlink:href="#Y"/><use transform="matrix(0.018,0,0,0.018,71.442,0)" xlink:href="#W"/></g><g id="y"><use transform="matrix(0.018,0,0,0.018,0,0)" xlink:href="#O"/><use transform="matrix(0.018,0,0,0.018,10.277999999999999,0)" xlink:href="#P"/><use transform="matrix(0.018,0,0,0.018,22.032,0)" xlink:href="#aF"/><use transform="matrix(0.018,0,0,0.018,32.994,0)" xlink:href="#av"/><use transform="matrix(0.018,0,0,0.018,44.028,0)" xlink:href="#ar"/><use transform="matrix(0.018,0,0,0.018,55.908,0)" xlink:href="#Q"/><use transform="matrix(0.018,0,0,0.018,66.87,0)" xlink:href="#W"/></g><g id="z"><use transform="matrix(0.018,0,0,0.018,0,0)" xlink:href="#Y"/><use transform="matrix(0.018,0,0,0.018,6.93,0)" xlink:href="#V"/></g><g id="A"><use transform="matrix(0.018,0,0,0.018,0,0)" xlink:href="#aM"/><use transform="matrix(0.018,0,0,0.018,13.877999999999998,0)" xlink:href="#aF"/><use transform="matrix(0.018,0,0,0.018,25.272,0)" xlink:href="#M"/><use transform="matrix(0.018,0,0,0.018,29.753999999999998,0)" xlink:href="#M"/><use transform="matrix(0.018,0,0,0.018,34.236,0)" xlink:href="#W"/></g><g id="B"><use transform="matrix(0.018,0,0,0.018,0,0)" xlink:href="#R"/><use transform="matrix(0.018,0,0,0.018,17.118,0)" xlink:href="#Q"/><use transform="matrix(0.018,0,0,0.018,27.36,0)" xlink:href="#Y"/><use transform="matrix(0.018,0,0,0.018,34.2,0)" xlink:href="#P"/><use transform="matrix(0.018,0,0,0.018,45.234,0)" xlink:href="#V"/><use transform="matrix(0.018,0,0,0.018,56.484,0)" xlink:href="#am"/><use transform="matrix(0.018,0,0,0.018,68.364,0)" xlink:href="#W"/></g><g id="C"><use transform="matrix(0.018,0,0,0.018,0,0)" xlink:href="#V"/><use transform="matrix(0.018,0,0,0.018,11.25,0)" xlink:href="#av"/></g><path d="M159 0c-31 0-55-25-55-55v-590c0-31 25-55 58-55h324c29 0 55 25 55 55 0 31-26 56-55 56H215v183h233c30 0 55 26 55 55 0 31-25 56-55 56H215v240c0 30-25 55-56 55" id="aN"/><g id="D"><use transform="matrix(0.018,0,0,0.018,0,0)" xlink:href="#aN"/><use transform="matrix(0.018,0,0,0.018,10.889999999999999,0)" xlink:href="#M"/><use transform="matrix(0.018,0,0,0.018,15.371999999999998,0)" xlink:href="#aF"/><use transform="matrix(0.018,0,0,0.018,26.513999999999992,0)" xlink:href="#W"/><use transform="matrix(0.018,0,0,0.018,35.37,0)" xlink:href="#az"/></g><g id="E"><use transform="matrix(0.018,0,0,0.018,0,0)" xlink:href="#aa"/><use transform="matrix(0.018,0,0,0.018,11.159999999999998,0)" xlink:href="#aa"/></g><g id="F"><use transform="matrix(0.018,0,0,0.018,0,0)" xlink:href="#aq"/><use transform="matrix(0.018,0,0,0.018,9.126,0)" xlink:href="#ad"/><use transform="matrix(0.018,0,0,0.018,21.005999999999997,0)" xlink:href="#ag"/></g><g id="G"><use transform="matrix(0.018,0,0,0.018,0,0)" xlink:href="#ak"/><use transform="matrix(0.018,0,0,0.018,11.159999999999998,0)" xlink:href="#ak"/></g><path d="M111-645c0-31 24-55 55-55 30 0 56 24 56 55v590c0 31-26 55-56 55-31 0-55-24-55-55v-590" id="aO"/><g id="H"><use transform="matrix(0.018,0,0,0.018,0,0)" xlink:href="#aO"/><use transform="matrix(0.018,0,0,0.018,5.489999999999999,0)" xlink:href="#av"/><use transform="matrix(0.018,0,0,0.018,16.163999999999998,0)" xlink:href="#aL"/><use transform="matrix(0.018,0,0,0.018,26.099999999999998,0)" xlink:href="#V"/><use transform="matrix(0.018,0,0,0.018,37.349999999999994,0)" xlink:href="#az"/><use transform="matrix(0.018,0,0,0.018,46.97999999999999,0)" xlink:href="#Q"/><use transform="matrix(0.018,0,0,0.018,57.94199999999999,0)" xlink:href="#W"/></g><g id="I"><use transform="matrix(0.018,0,0,0.018,0,0)" xlink:href="#al"/><use transform="matrix(0.018,0,0,0.018,10.494,0)" xlink:href="#Z"/><use transform="matrix(0.018,0,0,0.018,17.945999999999998,0)" xlink:href="#V"/><use transform="matrix(0.018,0,0,0.018,28.656,0)" xlink:href="#aL"/><use transform="matrix(0.018,0,0,0.018,39.132,0)" xlink:href="#X"/><use transform="matrix(0.018,0,0,0.018,44.19,0)" xlink:href="#am"/><use transform="matrix(0.018,0,0,0.018,55.8,0)" xlink:href="#Q"/><use transform="matrix(0.018,0,0,0.018,66.762,0)" xlink:href="#W"/></g><g id="J"><use transform="matrix(0.018,0,0,0.018,0,0)" xlink:href="#aF"/><use transform="matrix(0.018,0,0,0.018,11.142,0)" xlink:href="#O"/><use transform="matrix(0.018,0,0,0.018,21.15,0)" xlink:href="#O"/><use transform="matrix(0.018,0,0,0.018,31.157999999999998,0)" xlink:href="#Q"/><use transform="matrix(0.018,0,0,0.018,42.12,0)" xlink:href="#W"/><use transform="matrix(0.018,0,0,0.018,50.796,0)" xlink:href="#W"/></g></defs></g></svg>